<svg width="119" height="73" viewBox="0 0 119 73" fill="none" xmlns="http://www.w3.org/2000/svg">
<g clip-path="url(#clip0_135_3329)">
<path d="M2.52147 69.1894C2.45644 68.4176 2.42393 57.5802 2.4727 45.1187C2.53773 24.1513 2.57024 22.3987 2.81409 22.0128C2.97666 21.7877 3.26929 21.5143 3.49688 21.4178C4.16341 21.1123 7.28472 20.5817 8.37393 20.5817C9.33308 20.5817 9.43062 20.6139 9.51191 20.9515C9.56068 21.1445 9.60945 24.891 9.62571 29.2645L9.67448 37.2238L10.1134 37.9634C10.7637 39.0408 11.2189 39.298 12.4219 39.1855C13.2997 39.1211 18.0467 38.076 20.7291 37.3685C22.4523 36.9022 23.3627 36.2912 23.7204 35.3264C23.8342 35.0531 23.8992 31.8694 23.8992 26.3381C23.9155 21.1767 23.9805 17.6714 24.078 17.5106C24.3219 17.0604 24.7283 16.8996 27.0368 16.4011C29.5566 15.8383 31.2635 15.774 31.4749 16.2082C31.8163 16.8996 31.8 63.7064 31.4586 64.7355C31.3936 64.9284 31.166 65.1696 30.9222 65.2661C30.2719 65.5716 25.8663 66.263 24.9559 66.2148L24.1431 66.1665L24.0455 64.7194C23.9805 63.9315 23.9155 60.378 23.8992 56.8405C23.8829 53.3031 23.8179 49.5245 23.7529 48.4471C23.5578 44.8936 23.2652 44.8132 16.2585 46.3247C11.3164 47.402 9.95084 47.9648 9.70699 49.0421C9.65822 49.2672 9.59319 53.287 9.57694 57.9661C9.56068 62.6612 9.49565 67.0991 9.44688 67.8548C9.34934 69.1573 9.33308 69.2216 8.89415 69.4306C8.3089 69.72 4.0171 70.5883 3.22051 70.5883H2.63527L2.52147 69.1894Z" fill="#FFF8B3"/>
<path d="M37.0179 63.1758C36.9528 62.9667 36.9041 52.1293 36.9041 39.105C36.9041 12.6868 36.8065 14.7449 38.0746 14.2465C38.7736 13.957 51.4052 11.4165 52.088 11.4165C52.3968 11.4165 52.6407 11.6738 53.2585 12.6707C53.6811 13.346 54.5753 14.6967 55.2255 15.6454C56.1359 16.9639 56.4123 17.5106 56.4123 17.9286C56.4123 18.5879 56.6561 18.5075 51.2914 19.6169C47.3084 20.437 46.5119 20.6782 45.3901 21.3214C44.2522 21.9806 44.2197 22.1736 44.2197 27.2225V31.6121L44.9187 32.2874C46.1542 33.4773 46.6257 33.4773 52.0229 32.1588C53.4048 31.8211 54.9329 31.4995 55.4044 31.4352C56.4773 31.2905 57.1926 31.5478 57.3389 32.1427C57.4039 32.3678 57.4527 33.8632 57.4527 35.4711C57.469 38.7513 57.4527 38.8317 56.3635 38.9925C55.4044 39.1372 52.6569 39.7482 48.9666 40.6326C45.1626 41.533 44.6748 41.7903 44.3822 43.1249C44.2522 43.7037 44.2034 45.376 44.2522 48.2381C44.3009 52.3544 44.3172 52.5152 44.6748 53.094C44.935 53.496 45.2763 53.7694 45.7803 53.9623C46.6582 54.3 46.8045 54.2678 53.6486 52.8046C57.9567 51.8881 60.4602 51.5826 60.9642 51.9202C61.3218 52.1614 61.3056 58.963 60.9642 59.172C60.6878 59.3328 59.2572 59.6705 56.8187 60.1207C55.9246 60.2815 51.8604 61.0854 47.7962 61.9055C42.6427 62.9346 39.8953 63.4169 38.7574 63.4652C37.1317 63.5617 37.1154 63.5456 37.0179 63.1758Z" fill="#FFF8B3"/>
<path d="M72.1834 45.601V34.7635L71.143 33.1074C68.5744 29.0072 63.356 20.3565 62.5919 18.8933C61.4377 16.7226 60.4135 15.0664 58.9504 12.9439C57.9424 11.5129 57.7148 11.0787 57.7148 10.5803C57.7148 10.2426 57.7636 9.96927 57.8449 9.96927C57.9099 9.96927 59.0154 9.7924 60.3159 9.56729C61.6165 9.34218 63.3072 9.11707 64.1038 9.05275C65.8595 8.92412 65.7945 8.89196 67.3551 11.4968C70.9642 17.5426 73.614 21.4177 74.2806 21.5946C74.752 21.7072 75.5323 21.1283 76.0363 20.2922C76.2801 19.8741 76.6215 19.3274 76.7678 19.0541C77.093 18.5395 81.6774 9.39042 82.5878 7.47698C82.8804 6.86597 83.3356 6.04592 83.612 5.6761C84.1647 4.90429 84.5874 4.72742 87.1397 4.19681C87.9851 4.01993 89.4482 3.68227 90.3911 3.45716C91.334 3.23205 92.3744 3.05518 92.7158 3.05518C93.301 3.05518 93.3173 3.07126 93.3173 3.61795C93.3173 4.01993 92.5695 5.6761 90.6674 9.43866C89.2043 12.349 87.92 14.9699 87.79 15.2754C87.6599 15.5809 87.0909 16.8191 86.4894 18.0089C85.9042 19.1988 85.2539 20.5816 85.0426 21.064C84.8312 21.5464 83.5469 24.1995 82.1651 26.949L79.6616 31.9497L79.5153 43.3499C79.434 49.6208 79.3202 54.9109 79.2551 55.1039C79.1739 55.3772 78.8975 55.538 78.296 55.7149C76.9304 56.1329 74.817 56.4384 73.4677 56.4384H72.1834V45.601Z" fill="#FFF8B3"/>
<path d="M87.1367 52.9814C87.1367 52.7724 87.283 52.1774 87.4781 51.679C87.787 50.875 87.8358 50.264 87.9658 45.7779C88.1446 39.3301 88.2584 36.6609 88.3397 36.2589C88.3722 36.082 88.5186 35.5032 88.6649 34.9887C88.8112 34.4741 88.8925 34.0078 88.8437 33.9596C88.7949 33.9113 88.8274 33.7988 88.925 33.6862C89.0063 33.5898 89.1201 33.1878 89.1688 32.8019C89.2176 32.416 89.3314 32.0301 89.4127 31.9175C89.494 31.821 89.5752 31.4834 89.5915 31.1779C89.624 30.8724 89.7053 30.5347 89.7866 30.4382C89.8679 30.3257 89.8841 30.2292 89.8353 30.2292C89.7703 30.2292 89.9166 29.9076 90.1442 29.5378C90.3718 29.1519 90.5507 28.7499 90.5507 28.6534C90.5507 28.5569 90.8758 27.8012 91.2822 26.9812C91.6886 26.1611 92.0138 25.4054 92.0138 25.2928C92.0138 25.1964 92.2739 24.6014 92.5828 23.9743C92.8916 23.3633 93.1517 22.8005 93.1517 22.7202C93.1517 22.6398 93.3306 22.2056 93.5582 21.7554C93.7695 21.3052 93.9971 20.7263 94.0459 20.469C94.2247 19.7133 94.4848 19.2953 94.8099 19.2953C94.9888 19.2953 95.1026 19.1827 95.1026 18.9737C95.1026 18.7646 95.2164 18.6521 95.4277 18.6521C95.7203 18.6521 95.7528 18.7646 95.7528 19.9063C95.7528 21.2087 95.9804 21.9162 96.4356 21.9966C96.9071 22.0931 101.524 20.9514 102.451 20.5173C104.434 19.5847 105.751 17.8964 105.946 16.0151C106.011 15.3076 105.946 15.0503 105.474 14.1499C105.019 13.2816 104.775 13.0083 104.044 12.5741C102.857 11.8827 102.06 11.6898 100.874 11.8023C99.7845 11.9309 97.5248 12.4133 96.3706 12.7992L95.5903 13.0565V14.5679C95.5903 15.8061 95.5415 16.0794 95.3464 16.0794C95.2164 16.0794 95.1026 15.9668 95.1026 15.8382C95.1026 15.7096 94.9888 15.597 94.8587 15.597C94.6636 15.597 94.6149 15.3719 94.6149 14.4715C94.6149 13.571 94.6636 13.3459 94.8587 13.3459C94.9888 13.3459 95.1026 13.2334 95.1026 13.1047C95.1026 12.9761 94.9888 12.8635 94.8587 12.8635C94.7287 12.8635 94.6149 12.7992 94.6149 12.7027C94.6149 12.6224 94.7449 12.542 94.9075 12.542C95.1188 12.542 95.1351 12.5098 94.9563 12.3972C94.8425 12.3168 94.7774 12.1882 94.8262 12.0917C95.07 11.7219 94.9888 10.2909 94.7287 10.0014C94.371 9.61552 94.371 8.98843 94.7449 8.58645C94.9075 8.42566 95.2489 7.9272 95.4927 7.47698C95.7528 7.04284 96.0455 6.62477 96.143 6.56046C96.2405 6.49614 96.2568 6.43182 96.1918 6.43182C96.1105 6.43182 96.208 6.22279 96.3869 5.96552C96.5657 5.72433 96.6795 5.46706 96.6144 5.40275C96.5657 5.35451 96.5982 5.30627 96.6957 5.30627C96.8095 5.30627 96.8746 5.25803 96.8583 5.19372C96.842 5.11332 97.0371 4.63094 97.2972 4.10032C97.5573 3.56971 97.7687 3.02301 97.7687 2.89438C97.7849 2.52455 104.629 2.46024 106.027 2.83006C110.205 3.89129 113.326 6.9946 114.351 11.1109C114.692 12.4616 114.708 16.3527 114.367 17.8803C114.107 19.1666 113.326 20.7424 112.237 22.2378C111.213 23.6527 110.677 24.714 110.79 25.0838C110.839 25.2446 111.392 25.7431 112.01 26.1933C115.196 28.5409 116.399 31.1296 116.399 35.6157C116.399 37.8347 116.318 38.3331 115.472 40.8737C114.79 42.964 113.717 44.6684 112.172 46.0834C110.807 47.3376 109.896 47.9486 108.059 48.8008C104.97 50.2479 102.89 50.8107 95.6716 52.1774C89.9817 53.2708 89.2826 53.3834 88.1609 53.3834C87.1855 53.3834 87.1367 53.3673 87.1367 52.9814ZM99.1993 41.8063C102.678 41.1149 104.401 40.4074 105.767 39.121C107.393 37.5774 107.962 36.275 107.62 34.9243C107.23 33.3646 106.255 32.3999 104.483 31.821C103.426 31.4834 103.394 31.4834 101.41 31.7406C98.8254 32.0944 96.6632 32.5928 96.208 32.9466C95.8829 33.2199 95.8504 33.445 95.7366 35.6318C95.5903 38.6065 95.5578 41.4525 95.6878 41.9349C95.8179 42.4173 96.2405 42.4012 99.1993 41.8063Z" fill="#A3DAD1"/>
<path d="M1.98207 72.3408C0.892857 71.8101 0.665262 71.3438 0.47018 69.35C0.340125 68.1441 0.323869 60.6029 0.405153 44.7005L0.51895 21.7875L1.29928 20.9031C1.72196 20.4207 2.40474 19.8579 2.79491 19.6489C3.7378 19.1665 7.07045 18.4912 8.50105 18.4912C9.75283 18.4912 10.2243 18.6842 11.0534 19.5203L11.6061 20.0991L11.7036 28.589L11.7849 37.0628L12.3864 37.111C12.9879 37.1593 18.4502 35.9694 20.5636 35.3262L21.7016 34.9725L21.7991 33.2038C21.8642 32.239 21.9129 28.2353 21.9292 24.3119L21.9455 17.1888L22.3194 16.6421C23.0834 15.5326 24.1726 14.9698 26.5299 14.4553C30.6103 13.5549 31.3582 13.587 32.5774 14.6482C33.4553 15.4201 33.6016 15.822 33.7154 18.0088C33.8455 20.1634 33.8617 60.1527 33.7317 62.3073C33.5853 64.8961 33.5203 65.1855 32.9026 65.9894C32.2685 66.8095 31.537 67.2436 30.3177 67.517C28.8058 67.8386 25.5707 68.337 24.8879 68.337C23.4248 68.337 22.4169 67.4848 22.1243 66.0538C21.9292 64.9764 21.7829 60.5386 21.7666 53.8657C21.7341 47.5947 21.7179 47.4339 21.1976 47.4339C20.0759 47.4339 11.8662 49.2991 11.7849 49.5886C11.7524 49.685 11.6874 53.9782 11.6386 59.1075C11.5736 65.5392 11.4761 68.7229 11.346 69.3018C10.9721 70.8936 10.0455 71.4082 5.96499 72.1961C3.05502 72.7749 2.87619 72.7749 1.98207 72.3408ZM5.60734 69.6394C7.99709 69.1571 8.67988 68.948 8.84245 68.6747C8.90747 68.5782 8.98876 64.2207 9.03753 58.9789C9.07004 53.737 9.15133 49.1544 9.2001 48.8007C9.36267 47.5465 10.3381 47.0802 14.7437 46.0672C19.8483 44.9095 22.3356 44.6201 23.246 45.0703C23.4736 45.1828 23.7825 45.5366 23.945 45.8742C24.2702 46.5174 24.2702 46.7264 24.449 60.2009C24.4978 63.6901 24.5791 65.5392 24.6929 65.6518C24.8879 65.8447 29.6674 65.1372 30.4315 64.7835C31.2444 64.4298 31.2281 64.5262 31.2281 39.9571C31.2118 20.1795 31.1793 17.4139 30.9517 16.6903C30.8217 16.2723 30.0576 16.3205 27.489 16.8833C25.5057 17.3174 24.5628 17.6712 24.5303 17.9767C24.5303 18.041 24.4978 21.9482 24.4653 26.6756C24.4165 32.0782 24.3352 35.4549 24.2214 35.7764C24.1239 36.0498 23.8475 36.4679 23.6036 36.693C22.7583 37.4808 22.3844 37.6095 17.1497 38.8315C12.5978 39.8927 11.3297 40.0053 10.4681 39.4586C9.98043 39.137 9.42769 38.2527 9.24887 37.4969C9.18384 37.1753 9.10256 33.4449 9.0863 29.2C9.07004 24.939 9.02127 21.3694 8.98876 21.2729C8.87496 20.9835 8.07838 21.0156 6.09504 21.3855C4.0792 21.7714 3.67278 21.9322 3.29887 22.4949C3.05502 22.8808 3.0225 24.6496 2.98999 45.7456C2.94122 67.324 2.97373 70.1057 3.23384 70.1057C3.28261 70.1057 4.35556 69.8967 5.60734 69.6394Z" fill="#143335"/>
<path d="M36.8869 65.4588C36.074 65.2015 35.7652 64.9443 35.3262 64.1885L34.871 63.4328L34.8223 39.4747C34.7897 21.498 34.8385 15.4039 34.9686 15.0341C35.0824 14.7769 35.375 14.2141 35.6188 13.8121C36.4317 12.5418 37.7647 12.0595 43.4059 10.9982C45.0641 10.6927 47.2912 10.2586 48.3642 10.0335C49.4371 9.80835 50.884 9.51893 51.583 9.37421L52.8348 9.11694L53.5014 9.82443C54.0541 10.4033 56.6714 14.2462 58.736 17.4782C59.5814 18.7967 59.1912 19.7132 57.6143 20.1956C56.4113 20.5654 53.1762 21.305 50.7214 21.7874C49.5184 22.0125 48.0391 22.3502 47.4538 22.5432C46.1858 22.9291 46.1858 22.913 46.2345 25.4053C46.2508 26.2414 46.2833 27.8976 46.2996 29.0874L46.3321 31.2421L47.275 31.1295C47.7789 31.0652 49.5509 30.6954 51.2091 30.2934C54.3792 29.5216 55.9724 29.3125 56.9803 29.4894C57.8094 29.6502 59.0937 30.9205 59.3376 31.8209C59.5651 32.657 59.5814 38.0114 59.3538 38.735C59.11 39.4907 58.4759 40.2625 57.8257 40.568C57.5168 40.7128 56.2162 41.0504 54.932 41.3238C53.6477 41.5971 51.1766 42.1438 49.4697 42.5458L46.3321 43.2854V47.6912V52.0969H46.7873C47.0311 52.0969 48.6568 51.8075 50.3963 51.4376C58.0858 49.8619 59.0449 49.685 59.8578 49.685C60.9632 49.685 61.8411 50.1031 62.719 50.9874L63.418 51.6788L63.353 55.0716C63.2555 59.1235 63.1254 59.7667 62.215 60.5546C61.4347 61.2139 60.6869 61.439 57.7119 61.9696C56.5089 62.1947 54.6393 62.5484 53.5664 62.7896C52.4934 63.0147 49.0145 63.7222 45.8444 64.3332C40.2195 65.4266 37.7485 65.7482 36.8869 65.4588ZM47.3563 61.4068C51.388 60.5868 55.4359 59.7989 56.33 59.6381C58.7361 59.1879 60.1992 58.8502 60.4593 58.7055C60.6381 58.5929 60.7031 57.9498 60.7356 55.8434C60.7682 54.3319 60.7356 52.9491 60.6869 52.7561C60.4918 52.0004 60.0041 52.0487 52.9161 53.5601C50.4126 54.0907 47.8277 54.5731 47.1937 54.6213C45.6493 54.75 44.7227 54.4123 44.1862 53.5762C43.8285 52.9973 43.8123 52.8526 43.7635 48.2379C43.7147 45.022 43.7635 43.2211 43.8936 42.6423C44.1862 41.3077 44.6739 41.0504 48.478 40.15C52.1683 39.2656 54.9157 38.6546 55.8749 38.5099C56.9315 38.3491 56.9803 38.2205 56.9641 35.4709C56.9478 32.6731 56.8828 32.2229 56.3626 32.0621C55.8423 31.8852 55.5335 31.9335 52.1845 32.7213C46.5597 34.0559 45.8119 34.0559 44.5113 32.8339L43.731 32.0782L43.6985 27.3348C43.6822 21.8035 43.7147 21.5945 44.8202 20.887C45.8932 20.2277 47.0962 19.874 51.1279 19.0539C54.7856 18.3143 55.9236 18.041 55.9236 17.9284C55.9236 17.8962 55.3871 17.0762 54.7369 16.1275C54.0866 15.1788 53.1925 13.8282 52.7698 13.1368C52.2008 12.2363 51.9082 11.9147 51.7131 11.963C51.5668 12.0112 48.7056 12.5901 45.3567 13.2493C41.9915 13.9086 38.9352 14.5678 38.5613 14.7125C37.2933 15.2271 37.3908 13.2011 37.3908 39.1048C37.3908 51.8718 37.4396 62.4841 37.5046 62.6932C37.6022 63.063 37.6347 63.063 38.8052 62.9665C39.4555 62.9183 43.3083 62.2108 47.3563 61.4068Z" fill="#143335"/>
<path d="M71.7718 58.4322C71.3978 58.3196 70.8126 57.7086 70.4224 57.0011C70.1786 56.567 70.1298 55.3771 70.0648 45.6652L69.9835 34.8117L68.2115 31.9978C65.0739 27.0132 62.0989 22.0447 60.6033 19.3112C59.8067 17.848 58.5875 15.822 57.9047 14.8251C55.6775 11.5771 55.2386 10.8375 55.1573 10.0978C55.0922 9.50287 55.141 9.30992 55.4987 8.89186C55.7425 8.60243 56.1652 8.31301 56.4578 8.21653C57.2869 7.94318 62.863 7.0749 64.4074 6.96235C65.6592 6.88195 65.8705 6.89803 66.3745 7.21962C67.2036 7.71807 67.8701 8.61851 69.6584 11.5771C71.3816 14.4714 71.853 15.211 73.4462 17.5747L74.4866 19.1505L74.8118 18.652C75.3645 17.7355 79.9327 8.63459 80.4692 7.36433C81.0544 5.96543 82.0461 4.3575 82.7126 3.74649C83.3466 3.15155 84.257 2.81389 86.4354 2.33151C87.4921 2.1064 89.0853 1.7205 89.9794 1.49539C91.2637 1.15772 92.0115 1.07732 93.5559 1.06125L95.5067 1.04517L95.6043 2.09032C95.6693 2.79781 95.6368 3.39274 95.4742 3.93944C95.3442 4.38966 94.2387 6.70508 93.0032 9.08481C91.7839 11.4806 90.4834 14.0694 90.142 14.8573C89.7843 15.6612 88.9227 17.4621 88.2074 18.8771C87.5084 20.3082 86.8093 21.7875 86.6468 22.1894C86.4842 22.5914 85.395 24.8264 84.2082 27.174C83.0215 29.5216 81.9973 31.6119 81.916 31.8209C81.8347 32.03 81.7209 35.5835 81.6884 39.6998C81.5259 54.6375 81.4771 55.4575 80.7455 56.5027C80.3066 57.1137 79.1036 57.6282 77.1365 58.0463C75.5433 58.3839 72.422 58.593 71.7718 58.4322ZM75.6084 55.7148C77.8193 55.3289 78.6321 55.0555 78.7459 54.6053C78.876 54.0747 78.9898 49.5403 79.0873 39.7963L79.1849 31.4511L81.6722 26.4505C83.054 23.717 84.3383 21.0639 84.5496 20.5815C84.761 20.0991 85.4112 18.7163 85.9965 17.5264C86.598 16.3366 87.167 15.0985 87.297 14.793C87.4271 14.4875 88.7114 11.8505 90.1745 8.9401C91.6376 6.04583 92.8081 3.63393 92.7756 3.58569C92.7268 3.55354 91.5726 3.77865 90.207 4.10023C88.8252 4.40574 87.3458 4.7434 86.8906 4.83988C85.1024 5.2097 84.5984 5.45089 84.0944 6.15838C83.8181 6.52821 83.3629 7.34825 83.0703 7.95926C82.1599 9.8727 77.5754 19.0218 77.2503 19.5364C77.104 19.8097 76.7626 20.3564 76.5188 20.7745C75.5921 22.302 74.064 22.6397 73.1048 21.5141C72.1457 20.4207 69.3007 16.0471 66.8622 11.9791C65.3828 9.4868 65.3015 9.42248 64.0985 9.55111C62.7167 9.71191 58.2948 10.4516 58.2136 10.548C58.181 10.5802 58.7988 11.5771 59.6116 12.7509C61.2861 15.1789 61.8713 16.1597 63.0744 18.4108C63.8384 19.874 69.0406 28.5247 71.6254 32.6249L72.6659 34.2811V45.1185V55.956H73.4625C73.8851 55.956 74.8606 55.8434 75.6084 55.7148Z" fill="#143335"/>
<path d="M87.1367 54.1872V52.9009H87.917C88.7787 52.9009 89.6728 52.7561 95.1838 51.6949C102.402 50.3282 104.483 49.7654 107.572 48.3183C109.409 47.4661 110.319 46.855 111.685 45.6009C113.229 44.1859 114.302 42.4815 114.985 40.3912C115.798 37.931 115.911 37.3522 115.911 35.6156C115.911 31.644 114.578 28.9266 111.522 26.6755C110.091 25.6304 109.896 25.1319 110.417 23.8938C110.612 23.4436 110.888 22.929 111.034 22.7522C112.367 21.1442 113.554 18.9253 113.879 17.3978C114.204 15.9185 114.188 12.9116 113.863 11.5931C112.839 7.46077 109.734 4.37354 105.507 3.29623C104.662 3.07112 103.832 3.03896 101.118 3.07112L97.7849 3.13544L97.7362 1.84909L97.6874 0.562749L101.313 0.514511C104.792 0.466274 104.987 0.482353 106.336 0.868256C107.799 1.28632 109.978 2.26715 110.904 2.91033C113.668 4.85592 115.489 7.54116 116.415 11.0947C116.724 12.3006 116.757 12.7348 116.675 14.9537C116.562 18.4912 116.123 19.8418 114.188 22.7522C113.668 23.5401 113.18 24.2636 113.115 24.3601C113.05 24.4727 113.392 24.8425 113.912 25.2605C114.968 26.0806 116.562 27.9779 117.131 29.1196C118.35 31.4832 118.854 35.487 118.285 38.2687C117.862 40.3108 116.935 42.9156 116.188 44.1376C116.074 44.3145 115.814 44.7487 115.602 45.1024C114.643 46.6299 112.416 48.5916 110.14 49.894C107.149 51.6145 103.8 52.6757 97.4923 53.8817C89.7378 55.361 89.055 55.4735 88.0959 55.4735H87.1367V54.1872Z" fill="#143335"/>
<path d="M95.4281 42.7708C95.233 42.6422 95.1842 42.0794 95.168 39.362C95.168 37.5612 95.2167 35.3422 95.2655 34.4257C95.3956 32.3997 95.4606 32.3193 97.5089 31.853C99.1671 31.4671 102.288 31.033 103.313 31.033C105.394 31.033 107.507 32.4158 108.011 34.088C108.482 35.6638 108.222 37.336 107.344 38.4294C105.507 40.7127 103.589 41.5971 98.4681 42.5297C95.9646 42.9799 95.7695 42.996 95.4281 42.7708ZM100.581 39.8605C102.565 39.4424 103.638 38.9601 104.402 38.1722C105.166 37.3843 105.507 36.5642 105.507 35.5673C105.507 34.9241 105.426 34.7151 105.003 34.281C104.191 33.4609 103.524 33.3484 101.394 33.6378C99.2484 33.9433 98.2568 34.281 98.1267 34.7794C98.0292 35.2136 98.1592 39.8605 98.2893 40.0534C98.4193 40.2625 98.8583 40.2303 100.581 39.8605Z" fill="#143335"/>
<path d="M95.5905 22.2698C95.2817 21.9161 95.1679 20.3081 95.1191 16.224L95.0703 12.574L95.8669 12.3167C98.4517 11.4806 101.736 11.0625 102.987 11.4002C103.345 11.4967 104.044 11.8022 104.532 12.0916C105.263 12.5257 105.507 12.7991 105.962 13.6674C106.483 14.6482 106.515 14.7929 106.45 15.9989C106.353 17.7515 105.881 18.7484 104.711 19.7936C103.475 20.887 102.483 21.305 99.6873 21.9643C97.0699 22.5592 95.9157 22.6557 95.5905 22.2698ZM99.6873 19.5202C102.061 18.861 102.548 18.5394 103.231 17.2209C103.67 16.3526 103.573 15.6451 102.906 14.8894C102.158 14.0694 101.622 13.9086 100.354 14.1337C99.7848 14.2301 99.0207 14.4392 98.6631 14.5678L98.0291 14.8251V17.3817C98.0291 18.7806 98.0616 19.9383 98.1266 19.9383C98.1754 19.9383 98.8744 19.7453 99.6873 19.5202Z" fill="#143335"/>
</g>
<defs>
<clipPath id="clip0_135_3329">
<rect width="119" height="73" fill="white"/>
</clipPath>
</defs>
</svg>
