<svg width="16" height="16" viewBox="0 0 16 16" fill="none" xmlns="http://www.w3.org/2000/svg">
<path d="M3.33333 14V3.33333C3.33333 2.97971 3.47381 2.64057 3.72386 2.39052C3.97391 2.14048 4.31305 2 4.66667 2H11.3333C11.687 2 12.0261 2.14048 12.2761 2.39052C12.5262 2.64057 12.6667 2.97971 12.6667 3.33333V14L8.72133 11.4633C8.5062 11.3249 8.2558 11.2514 8 11.2514C7.7442 11.2514 7.4938 11.3249 7.27867 11.4633L3.33333 14Z" fill="white" fill-opacity="0.1"/>
<path fill-rule="evenodd" clip-rule="evenodd" d="M4.66667 2.5C4.44565 2.5 4.23369 2.5878 4.07741 2.74408C3.92113 2.90036 3.83333 3.11232 3.83333 3.33333V13.0841L7.00817 11.0428C7.30396 10.8526 7.64831 10.7514 8 10.7514C8.35169 10.7514 8.69595 10.8525 8.99174 11.0428L12.1667 13.0841V3.33333C12.1667 3.11232 12.0789 2.90036 11.9226 2.74408C11.7663 2.5878 11.5543 2.5 11.3333 2.5H4.66667ZM3.3703 2.03697C3.71412 1.69315 4.18044 1.5 4.66667 1.5H11.3333C11.8196 1.5 12.2859 1.69315 12.6297 2.03697C12.9735 2.38079 13.1667 2.8471 13.1667 3.33333V14C13.1667 14.1829 13.0668 14.3512 12.9062 14.4389C12.7457 14.5265 12.5501 14.5195 12.3963 14.4206L8.45093 11.8839C8.31647 11.7974 8.15988 11.7514 8 11.7514C7.84013 11.7514 7.68363 11.7974 7.54917 11.8838L3.60374 14.4206C3.44989 14.5195 3.2543 14.5265 3.09375 14.4389C2.93321 14.3512 2.83333 14.1829 2.83333 14V3.33333C2.83333 2.8471 3.02649 2.38079 3.3703 2.03697Z" fill="#303C47"/>
</svg>
