<svg width="24" height="24" viewBox="0 0 24 24" fill="none" xmlns="http://www.w3.org/2000/svg">
<g clip-path="url(#clip0_155_629)">
<path fill-rule="evenodd" clip-rule="evenodd" d="M19.355 4.64472C19.6479 4.93761 19.6479 5.41249 19.355 5.70538L5.70513 19.3553C5.41224 19.6482 4.93737 19.6482 4.64447 19.3553C4.35158 19.0624 4.35158 18.5875 4.64447 18.2946L18.2944 4.64472C18.5873 4.35183 19.0621 4.35183 19.355 4.64472Z" fill="#303C47"/>
<path fill-rule="evenodd" clip-rule="evenodd" d="M19.3555 19.3553C19.0626 19.6482 18.5878 19.6482 18.2949 19.3553L4.64496 5.70538C4.35207 5.41248 4.35207 4.93761 4.64496 4.64472C4.93786 4.35182 5.41273 4.35182 5.70562 4.64472L19.3555 18.2946C19.6484 18.5875 19.6484 19.0624 19.3555 19.3553Z" fill="#303C47"/>
</g>
<defs>
<clipPath id="clip0_155_629">
<rect width="24" height="24" fill="white"/>
</clipPath>
</defs>
</svg>
