<svg width="25" height="24" viewBox="0 0 25 24" fill="none" xmlns="http://www.w3.org/2000/svg">
<path d="M18.2 8H19.2C20.2609 8 21.2783 8.42143 22.0284 9.17157C22.7786 9.92172 23.2 10.9391 23.2 12C23.2 13.0609 22.7786 14.0783 22.0284 14.8284C21.2783 15.5786 20.2609 16 19.2 16H18.2M18.2 8H2.2V17C2.2 18.0609 2.62142 19.0783 3.37157 19.8284C4.12172 20.5786 5.13913 21 6.2 21H14.2C15.2609 21 16.2783 20.5786 17.0284 19.8284C17.7786 19.0783 18.2 18.0609 18.2 17V8ZM6.2 1V4M10.2 1V4M14.2 1V4" stroke="#000000" stroke-width="1.6" stroke-linecap="round" stroke-linejoin="round"/>
</svg>
