<svg width="16" height="16" viewBox="0 0 16 16" fill="none" xmlns="http://www.w3.org/2000/svg">
<path fill-rule="evenodd" clip-rule="evenodd" d="M7.99333 13.9924C11.3034 13.9924 13.9867 11.3078 13.9867 7.99618C13.9867 4.68458 11.3034 2 7.99333 2C4.68331 2 2 4.68458 2 7.99618C2 9.11878 2.30835 10.1693 2.84494 11.0677L2.12684 13.2271C1.99654 13.6189 2.37048 13.9909 2.7616 13.8585L4.90174 13.1341C5.80439 13.6789 6.86227 13.9924 7.99333 13.9924Z" fill="white"/>
<path d="M2.84494 11.0677L3.50918 11.2886C3.57345 11.0953 3.55035 10.8836 3.4459 10.7087L2.84494 11.0677ZM2.12684 13.2271L1.4626 13.0062L1.4626 13.0062L2.12684 13.2271ZM2.7616 13.8585L2.98604 14.5215H2.98604L2.7616 13.8585ZM4.90174 13.1341L5.26347 12.5348C5.087 12.4283 4.87255 12.4049 4.6773 12.471L4.90174 13.1341ZM13.2867 7.99618C13.2867 10.9215 10.9164 13.2924 7.99333 13.2924V14.6924C11.6903 14.6924 14.6867 11.6941 14.6867 7.99618H13.2867ZM7.99333 2.7C10.9164 2.7 13.2867 5.07087 13.2867 7.99618H14.6867C14.6867 4.29829 11.6903 1.3 7.99333 1.3V2.7ZM2.7 7.99618C2.7 5.07087 5.07022 2.7 7.99333 2.7V1.3C4.29639 1.3 1.3 4.29829 1.3 7.99618H2.7ZM3.4459 10.7087C2.97233 9.91588 2.7 8.98892 2.7 7.99618H1.3C1.3 9.24863 1.64437 10.4228 2.24399 11.4266L3.4459 10.7087ZM2.79107 13.448L3.50918 11.2886L2.18071 10.8468L1.4626 13.0062L2.79107 13.448ZM2.53717 13.1954C2.69362 13.1425 2.84319 13.2913 2.79107 13.448L1.4626 13.0062C1.14988 13.9466 2.04733 14.8393 2.98604 14.5215L2.53717 13.1954ZM4.6773 12.471L2.53717 13.1954L2.98604 14.5215L5.12618 13.7971L4.6773 12.471ZM7.99333 13.2924C6.99332 13.2924 6.06005 13.0156 5.26347 12.5348L4.54001 13.7334C5.54873 14.3422 6.73122 14.6924 7.99333 14.6924V13.2924Z" fill="#303C47"/>
</svg>
