<svg width="14" height="14" viewBox="0 0 14 14" fill="none" xmlns="http://www.w3.org/2000/svg">
<path fill-rule="evenodd" clip-rule="evenodd" d="M6.69129 1.44064C6.86215 1.26979 7.13916 1.26979 7.31001 1.44064L9.35168 3.48231C9.52253 3.65316 9.52253 3.93017 9.35168 4.10103C9.18082 4.27188 8.90381 4.27188 8.73296 4.10103L7.43815 2.80622V8.75C7.43815 8.99162 7.24228 9.1875 7.00065 9.1875C6.75903 9.1875 6.56315 8.99162 6.56315 8.75V2.80622L5.26834 4.10103C5.09749 4.27188 4.82048 4.27188 4.64963 4.10103C4.47877 3.93017 4.47877 3.65316 4.64963 3.48231L6.69129 1.44064ZM2.33398 7.14583C2.57561 7.14583 2.77148 7.34171 2.77148 7.58333V11.0833C2.77148 11.2767 2.84831 11.4622 2.98505 11.5989C3.1218 11.7357 3.30726 11.8125 3.50065 11.8125H10.5007C10.694 11.8125 10.8795 11.7357 11.0163 11.5989C11.153 11.4622 11.2298 11.2767 11.2298 11.0833V7.58333C11.2298 7.34171 11.4257 7.14583 11.6673 7.14583C11.9089 7.14583 12.1048 7.34171 12.1048 7.58333V11.0833C12.1048 11.5088 11.9358 11.9168 11.635 12.2177C11.3341 12.5185 10.9261 12.6875 10.5007 12.6875H3.50065C3.0752 12.6875 2.66717 12.5185 2.36633 12.2177C2.06549 11.9168 1.89648 11.5088 1.89648 11.0833V7.58333C1.89648 7.34171 2.09236 7.14583 2.33398 7.14583Z" fill="#303C47"/>
</svg>
