<svg width="16" height="16" viewBox="0 0 16 16" fill="none" xmlns="http://www.w3.org/2000/svg">
<path d="M3.33334 14V3.33333C3.33334 2.97971 3.47382 2.64057 3.72387 2.39052C3.97392 2.14048 4.31305 2 4.66668 2H11.3333C11.687 2 12.0261 2.14048 12.2762 2.39052C12.5262 2.64057 12.6667 2.97971 12.6667 3.33333V14L8.72134 11.4633C8.50621 11.3249 8.25581 11.2514 8.00001 11.2514C7.74421 11.2514 7.49381 11.3249 7.27868 11.4633L3.33334 14Z" fill="#303C47"/>
<path fill-rule="evenodd" clip-rule="evenodd" d="M4.66668 2.5C4.44566 2.5 4.2337 2.5878 4.07742 2.74408C3.92114 2.90036 3.83334 3.11232 3.83334 3.33333V13.0841L7.00818 11.0428C7.30396 10.8526 7.64832 10.7514 8.00001 10.7514C8.3517 10.7514 8.69596 10.8525 8.99175 11.0428L12.1667 13.0841V3.33333C12.1667 3.11232 12.0789 2.90036 11.9226 2.74408C11.7663 2.5878 11.5544 2.5 11.3333 2.5H4.66668ZM3.37031 2.03697C3.71413 1.69315 4.18045 1.5 4.66668 1.5H11.3333C11.8196 1.5 12.2859 1.69315 12.6297 2.03697C12.9735 2.38079 13.1667 2.8471 13.1667 3.33333V14C13.1667 14.1829 13.0668 14.3512 12.9063 14.4389C12.7457 14.5265 12.5501 14.5195 12.3963 14.4206L8.45094 11.8839C8.31648 11.7974 8.15988 11.7514 8.00001 11.7514C7.84014 11.7514 7.68364 11.7974 7.54918 11.8838L3.60375 14.4206C3.4499 14.5195 3.25431 14.5265 3.09376 14.4389C2.93322 14.3512 2.83334 14.1829 2.83334 14V3.33333C2.83334 2.8471 3.0265 2.38079 3.37031 2.03697Z" fill="#303C47"/>
</svg>
