<svg width="20" height="20" viewBox="0 0 20 20" fill="none" xmlns="http://www.w3.org/2000/svg">
<g clip-path="url(#clip0_155_35)">
<path d="M12 15.3333H5.33333C4.4496 15.3323 3.60237 14.9807 2.97748 14.3559C2.35259 13.731 2.00106 12.8837 2 12L2 5.33333C2.00106 4.4496 2.35259 3.60237 2.97748 2.97748C3.60237 2.35259 4.4496 2.00106 5.33333 2L12 2C12.8837 2.00106 13.731 2.35259 14.3559 2.97748C14.9807 3.60237 15.3323 4.4496 15.3333 5.33333V12C15.3323 12.8837 14.9807 13.731 14.3559 14.3559C13.731 14.9807 12.8837 15.3323 12 15.3333ZM5.33333 3.33333C4.8029 3.33333 4.29419 3.54405 3.91912 3.91912C3.54405 4.29419 3.33333 4.8029 3.33333 5.33333V12C3.33333 12.5304 3.54405 13.0391 3.91912 13.4142C4.29419 13.7893 4.8029 14 5.33333 14H12C12.5304 14 13.0391 13.7893 13.4142 13.4142C13.7893 13.0391 14 12.5304 14 12V5.33333C14 4.8029 13.7893 4.29419 13.4142 3.91912C13.0391 3.54405 12.5304 3.33333 12 3.33333H5.33333ZM18 14.6667V6C18 5.82319 17.9298 5.65362 17.8047 5.5286C17.6797 5.40357 17.5101 5.33333 17.3333 5.33333C17.1565 5.33333 16.987 5.40357 16.8619 5.5286C16.7369 5.65362 16.6667 5.82319 16.6667 6V14.6667C16.6667 15.1971 16.456 15.7058 16.0809 16.0809C15.7058 16.456 15.1971 16.6667 14.6667 16.6667H6C5.82319 16.6667 5.65362 16.7369 5.5286 16.8619C5.40357 16.987 5.33333 17.1565 5.33333 17.3333C5.33333 17.5101 5.40357 17.6797 5.5286 17.8047C5.65362 17.9298 5.82319 18 6 18H14.6667C15.5504 17.9989 16.3976 17.6474 17.0225 17.0225C17.6474 16.3976 17.9989 15.5504 18 14.6667Z" fill="#303C47"/>
</g>
<defs>
<clipPath id="clip0_155_35">
<rect width="16" height="16" fill="white" transform="translate(2 2)"/>
</clipPath>
</defs>
</svg>
