<svg width="24" height="24" viewBox="0 0 24 24" fill="none" xmlns="http://www.w3.org/2000/svg">
<path fill-rule="evenodd" clip-rule="evenodd" d="M15.5006 2.68188H20.1078C20.4125 2.68219 20.7079 2.79031 20.9405 2.9871C21.1731 3.18389 21.3286 3.45664 21.3794 3.75705L21.3796 3.75849L22.053 7.79202C22.0894 7.9877 22.0766 8.18945 22.0154 8.37902C21.9529 8.57271 21.8421 8.74729 21.6934 8.88626L21.6857 8.8935L21.6777 8.90051C20.9819 9.51328 20.0863 9.85081 19.1591 9.84967C18.2822 9.84953 17.5624 9.55763 17.0719 9.27737C16.8251 9.13636 16.6302 8.9948 16.4944 8.88622C16.4264 8.83176 16.3725 8.78507 16.3339 8.75017C16.3146 8.73271 16.299 8.71814 16.2872 8.70696L16.2725 8.69278L16.2673 8.68771L16.2653 8.68569L16.2644 8.68481L16.2636 8.68402L16.0827 8.5031L15.5006 2.68188ZM17.4548 7.81709C17.5389 7.88034 17.6495 7.95635 17.7831 8.0327C18.1288 8.23023 18.6034 8.41611 19.1597 8.41611C19.6898 8.41681 20.2043 8.23987 20.6203 7.91582L19.9858 4.11544H17.0847L17.4548 7.81709Z" fill="#303C47"/>
<path fill-rule="evenodd" clip-rule="evenodd" d="M8.44668 2.68188H3.83948C3.5348 2.68219 3.23934 2.79031 3.00674 2.9871C2.77414 3.18389 2.61868 3.45664 2.56791 3.75705L2.56766 3.75849L1.8943 7.79202C1.85784 7.9877 1.87071 8.18945 1.93186 8.37902C1.99435 8.57271 2.10516 8.74729 2.25386 8.88626L2.2616 8.8935L2.26956 8.90051C2.96536 9.51328 3.86101 9.85081 4.78816 9.84967C5.66506 9.84953 6.38493 9.55763 6.87537 9.27737C7.12215 9.13636 7.31711 8.9948 7.45284 8.88622C7.52092 8.83176 7.57474 8.78507 7.61338 8.75017C7.63272 8.73271 7.64831 8.71814 7.66005 8.70696L7.67476 8.69278L7.67993 8.68771L7.68197 8.68569L7.68285 8.68481L7.68364 8.68402L7.86456 8.5031L8.44668 2.68188ZM6.49246 7.81709C6.40836 7.88034 6.29773 7.95635 6.16413 8.0327C5.81845 8.23023 5.34392 8.41611 4.78754 8.41611C4.2575 8.41681 3.74303 8.23987 3.32702 7.91582L3.96147 4.11544H6.86262L6.49246 7.81709Z" fill="#303C47"/>
<path fill-rule="evenodd" clip-rule="evenodd" d="M11.2755 2.68188H16.9416L17.5178 8.44384L17.2777 8.68402L16.7708 8.17718C17.2777 8.68402 17.2777 8.68402 17.2777 8.68402L17.2769 8.68481L17.276 8.68569L17.274 8.6877L17.2688 8.69278L17.2541 8.70696C17.2423 8.71814 17.2267 8.7327 17.2074 8.75017C17.1688 8.78507 17.1149 8.83176 17.0469 8.88622C16.9111 8.9948 16.7162 9.13636 16.4694 9.27737C15.9788 9.55769 15.2587 9.84967 14.3816 9.84967C13.5044 9.84967 12.7843 9.55769 12.2937 9.27737C12.047 9.13636 11.852 8.9948 11.7163 8.88622C11.6482 8.83176 11.5944 8.78507 11.5557 8.75017C11.5364 8.7327 11.5208 8.71814 11.5091 8.70696L11.4943 8.69278L11.4892 8.6877L11.4871 8.68569L11.4863 8.68481L11.4892 8.6877L11.4855 8.68402L11.2755 8.47408V2.68188ZM12.7091 7.84113C12.7885 7.89916 12.8879 7.9658 13.005 8.0327C13.3507 8.23023 13.8252 8.41611 14.3816 8.41611C14.9379 8.41611 15.4125 8.23023 15.7582 8.0327C15.8588 7.97521 15.9463 7.91791 16.0194 7.86611L15.6443 4.11544H12.7091V7.84113ZM16.2654 7.66887C16.2669 7.66746 16.2673 7.66707 16.2673 7.66707L16.2663 7.66805L16.2654 7.66887ZM12.4977 7.66887L12.4958 7.66702L12.4968 7.66805L12.4977 7.66887Z" fill="#303C47"/>
<path fill-rule="evenodd" clip-rule="evenodd" d="M7.04287 2.68188H12.709V8.47408L12.4991 8.68402L12.4983 8.68481L12.4974 8.68569L12.4953 8.6877L12.4902 8.69278L12.4755 8.70696C12.4637 8.71814 12.4481 8.7327 12.4288 8.75017C12.3902 8.78507 12.3363 8.83176 12.2683 8.88622C12.1325 8.9948 11.9376 9.13636 11.6908 9.27737C11.2002 9.55769 10.4801 9.84967 9.60295 9.84967C8.72578 9.84967 8.00568 9.55769 7.51512 9.27737C7.26835 9.13636 7.07338 8.9948 6.93765 8.88622C6.86957 8.83176 6.81575 8.78507 6.77711 8.75017C6.75777 8.7327 6.74218 8.71814 6.73045 8.70696L6.71573 8.69278L6.71056 8.6877L6.70852 8.68569L6.70764 8.68481L6.70686 8.68402L6.46667 8.44384L7.04287 2.68188ZM7.96515 7.86611C8.03818 7.91791 8.12576 7.97521 8.22636 8.0327C8.57204 8.23023 9.04658 8.41611 9.60295 8.41611C10.1593 8.41611 10.6339 8.23023 10.9795 8.0327C11.0966 7.9658 11.196 7.89916 11.2754 7.84113V4.11544H8.34022L7.96515 7.86611ZM11.4868 7.66887C11.4883 7.66746 11.4887 7.66707 11.4887 7.66707L11.4877 7.66805L11.4868 7.66887ZM7.71911 7.66887L7.71718 7.66702L7.71822 7.66805L7.71911 7.66887Z" fill="#303C47"/>
<path fill-rule="evenodd" clip-rule="evenodd" d="M2.68073 18.69V9.13293H4.11428V18.69C4.11428 19.0068 4.24014 19.3107 4.46418 19.5347C4.68822 19.7587 4.99208 19.8846 5.30891 19.8846H18.6888C19.0056 19.8846 19.3095 19.7587 19.5335 19.5347C19.7575 19.3107 19.8834 19.0068 19.8834 18.69V9.13293H21.317V18.69C21.317 19.387 21.0401 20.0555 20.5472 20.5484C20.0543 21.0413 19.3858 21.3182 18.6888 21.3182H5.30891C4.61187 21.3182 3.94338 21.0413 3.4505 20.5484C2.95762 20.0555 2.68073 19.387 2.68073 18.69Z" fill="#303C47"/>
<path fill-rule="evenodd" clip-rule="evenodd" d="M9.18578 13.0087C9.67866 12.5158 10.3471 12.2389 11.0442 12.2389H12.9556C13.6526 12.2389 14.3211 12.5158 14.814 13.0087C15.3069 13.5016 15.5838 14.17 15.5838 14.8671V20.6013H14.1502V14.8671C14.1502 14.5502 14.0244 14.2464 13.8003 14.0223C13.5763 13.7983 13.2724 13.6724 12.9556 13.6724H11.0442C10.7274 13.6724 10.4235 13.7983 10.1995 14.0223C9.97542 14.2464 9.84956 14.5502 9.84956 14.8671V20.6013H8.416V14.8671C8.416 14.17 8.6929 13.5016 9.18578 13.0087Z" fill="#303C47"/>
</svg>
