<svg width="25" height="24" viewBox="0 0 25 24" fill="none" xmlns="http://www.w3.org/2000/svg">
<g clip-path="url(#clip0_155_344)">
<path d="M22.7451 14.3377L22.0335 14.5744C21.9646 14.3674 21.9893 14.1407 22.1011 13.9533L22.7451 14.3377ZM23.7248 17.2821L24.4364 17.0454H24.4364L23.7248 17.2821ZM23.0901 17.9136L22.8497 18.6241H22.8497L23.0901 17.9136ZM20.1701 16.9257L19.7825 16.2836C19.9716 16.1695 20.2013 16.1445 20.4104 16.2152L20.1701 16.9257ZM9.55001 10.5C9.55001 14.2279 12.5721 17.25 16.3 17.25V18.75C11.7437 18.75 8.05001 15.0563 8.05001 10.5H9.55001ZM16.3 3.75C12.5721 3.75 9.55001 6.77208 9.55001 10.5H8.05001C8.05001 5.94365 11.7437 2.25 16.3 2.25V3.75ZM23.05 10.5C23.05 6.77208 20.0279 3.75 16.3 3.75V2.25C20.8564 2.25 24.55 5.94365 24.55 10.5H23.05ZM22.1011 13.9533C22.7036 12.9436 23.05 11.7634 23.05 10.5H24.55C24.55 12.0414 24.1266 13.4863 23.3892 14.722L22.1011 13.9533ZM23.0131 17.5189L22.0335 14.5744L23.4568 14.1009L24.4364 17.0454L23.0131 17.5189ZM23.3305 17.2032C23.1349 17.137 22.9479 17.323 23.0131 17.5189L24.4364 17.0454C24.7623 18.0249 23.8276 18.9549 22.8497 18.6241L23.3305 17.2032ZM20.4104 16.2152L23.3305 17.2032L22.8497 18.6241L19.9297 17.6361L20.4104 16.2152ZM16.3 17.25C17.5756 17.25 18.7663 16.8969 19.7825 16.2836L20.5576 17.5678C19.3141 18.3183 17.8563 18.75 16.3 18.75V17.25Z" fill="#303C47"/>
<path d="M12.5031 7.41211H19.166" stroke="#303C47" stroke-width="1.2" stroke-linecap="round" stroke-linejoin="round"/>
<path d="M12.5031 10.1455H19.166" stroke="#303C47" stroke-width="1.2" stroke-linecap="round" stroke-linejoin="round"/>
<path d="M14.6242 12.9883L19.1644 12.9883" stroke="#303C47" stroke-width="1.2" stroke-linecap="round" stroke-linejoin="round"/>
<path fill-rule="evenodd" clip-rule="evenodd" d="M9.66895 22.9999C14.0148 22.9999 17.5379 19.6421 17.5379 15.5C17.5379 11.3578 14.0148 8 9.66895 8C5.32305 8 1.80001 11.3578 1.80001 15.5C1.80001 16.9025 2.20395 18.2152 2.907 19.338L1.87744 22.2874C1.74133 22.6774 2.10988 23.0548 2.50296 22.9281L5.60966 21.9263C6.79483 22.6078 8.18385 22.9999 9.66895 22.9999Z" fill="white"/>
<path d="M2.907 19.338L3.6151 19.5851C3.69012 19.3702 3.66348 19.1329 3.54267 18.9399L2.907 19.338ZM1.87744 22.2874L2.58554 22.5346L2.58554 22.5346L1.87744 22.2874ZM2.50296 22.9281L2.73314 23.6419H2.73314L2.50296 22.9281ZM5.60966 21.9263L5.98354 21.2761C5.80017 21.1706 5.5808 21.1475 5.37948 21.2125L5.60966 21.9263ZM16.7879 15.5C16.7879 19.1943 13.635 22.2499 9.66895 22.2499V23.7499C14.3947 23.7499 18.2879 20.0898 18.2879 15.5H16.7879ZM9.66895 8.75C13.635 8.75 16.7879 11.8056 16.7879 15.5H18.2879C18.2879 10.9101 14.3947 7.25 9.66895 7.25V8.75ZM2.55001 15.5C2.55001 11.8056 5.70292 8.75 9.66895 8.75V7.25C4.94319 7.25 1.05001 10.9101 1.05001 15.5H2.55001ZM3.54267 18.9399C2.91119 17.9314 2.55001 16.7559 2.55001 15.5H1.05001C1.05001 17.0491 1.49671 18.4989 2.27134 19.736L3.54267 18.9399ZM2.58554 22.5346L3.6151 19.5851L2.1989 19.0908L1.16934 22.0402L2.58554 22.5346ZM2.27278 22.2143C2.46932 22.1509 2.6536 22.3396 2.58554 22.5346L1.16934 22.0402C0.829054 23.0151 1.75044 23.9588 2.73314 23.6419L2.27278 22.2143ZM5.37948 21.2125L2.27278 22.2143L2.73314 23.6419L5.83984 22.6401L5.37948 21.2125ZM9.66895 22.2499C8.31699 22.2499 7.05665 21.8932 5.98354 21.2761L5.23578 22.5764C6.53302 23.3224 8.0507 23.7499 9.66895 23.7499V22.2499Z" fill="#303C47"/>
<path d="M6.6086 12.6738H13.2715" stroke="#303C47" stroke-width="1.2" stroke-linecap="round" stroke-linejoin="round"/>
<path d="M6.6086 15.4092H13.2715" stroke="#303C47" stroke-width="1.2" stroke-linecap="round" stroke-linejoin="round"/>
<path d="M6.6086 18.251L11.1488 18.251" stroke="#303C47" stroke-width="1.2" stroke-linecap="round" stroke-linejoin="round"/>
</g>
<defs>
<clipPath id="clip0_155_344">
<rect width="24" height="24" fill="white" transform="translate(0.800007)"/>
</clipPath>
</defs>
</svg>
