<svg width="25" height="24" viewBox="0 0 25 24" fill="none" xmlns="http://www.w3.org/2000/svg">
<g clip-path="url(#clip0_215_6239)">
<path d="M9.05614 7.92266L9.01622 8.67159C8.77867 8.65893 8.56122 8.53433 8.43019 8.33579C8.29915 8.13725 8.27007 7.88832 8.35182 7.66493L9.05614 7.92266ZM17.0297 17.9431L17.1215 18.6875C16.8891 18.7162 16.6566 18.6346 16.493 18.467C16.3294 18.2994 16.2535 18.065 16.2878 17.8333L17.0297 17.9431ZM19.9716 16.9257L19.5841 16.2836C19.7731 16.1695 20.0028 16.1445 20.212 16.2152L19.9716 16.9257ZM22.8916 17.9136L22.6513 18.6241L22.6513 18.6241L22.8916 17.9136ZM23.5263 17.2821L24.238 17.0454L24.238 17.0454L23.5263 17.2821ZM22.5467 14.3377L21.835 14.5744C21.7662 14.3674 21.7909 14.1407 21.9026 13.9533L22.5467 14.3377ZM16.1016 2.25C20.6579 2.25 24.3516 5.94365 24.3516 10.5H22.8516C22.8516 6.77208 19.8295 3.75 16.1016 3.75V2.25ZM8.35182 7.66493C9.50763 4.50628 12.5402 2.25 16.1016 2.25V3.75C13.1898 3.75 10.7069 5.59402 9.76047 8.18039L8.35182 7.66493ZM16.2878 17.8333C16.739 14.7864 16.1932 12.5989 14.9841 11.1438C13.7724 9.68566 11.7749 8.81867 9.01622 8.67159L9.09607 7.17372C12.1107 7.33444 14.5706 8.29924 16.1378 10.1851C17.7075 12.0741 18.2618 14.743 17.7716 18.053L16.2878 17.8333ZM20.3592 17.5678C19.392 18.1516 18.2947 18.5427 17.1215 18.6875L16.9378 17.1988C17.8968 17.0804 18.7931 16.761 19.5841 16.2836L20.3592 17.5678ZM20.212 16.2152L23.132 17.2032L22.6513 18.6241L19.7313 17.6361L20.212 16.2152ZM23.132 17.2032C22.9364 17.137 22.7495 17.323 22.8147 17.5189L24.238 17.0454C24.5639 18.0249 23.6291 18.9549 22.6513 18.6241L23.132 17.2032ZM22.8147 17.5189L21.835 14.5744L23.2583 14.1009L24.238 17.0454L22.8147 17.5189ZM24.3516 10.5C24.3516 12.0414 23.9281 13.4863 23.1907 14.722L21.9026 13.9533C22.5052 12.9436 22.8516 11.7634 22.8516 10.5H24.3516Z" fill="black"/>
<path d="M12.3047 7.41211H18.9676" stroke="black" stroke-width="1.5" stroke-linecap="round" stroke-linejoin="round"/>
<path d="M18.9667 10.1455H15.3048" stroke="black" stroke-width="1.5" stroke-linecap="round" stroke-linejoin="round"/>
<path d="M18.9654 12.9883L17.1016 13" stroke="black" stroke-width="1.5" stroke-linecap="round" stroke-linejoin="round"/>
<path d="M2.70856 19.338L3.41666 19.5851C3.49168 19.3702 3.46503 19.1329 3.34423 18.9399L2.70856 19.338ZM1.679 22.2874L2.3871 22.5346L2.3871 22.5346L1.679 22.2874ZM2.30452 22.9281L2.53469 23.6419L2.53469 23.6419L2.30452 22.9281ZM5.41122 21.9263L5.78509 21.2761C5.60173 21.1706 5.38235 21.1475 5.18104 21.2125L5.41122 21.9263ZM16.5895 15.5C16.5895 19.1943 13.4365 22.2499 9.47051 22.2499V23.7499C14.1963 23.7499 18.0895 20.0898 18.0895 15.5H16.5895ZM9.47051 8.75C13.4365 8.75 16.5895 11.8056 16.5895 15.5H18.0895C18.0895 10.9101 14.1963 7.25 9.47051 7.25V8.75ZM2.35156 15.5C2.35156 11.8056 5.50447 8.75 9.47051 8.75V7.25C4.74475 7.25 0.851562 10.9101 0.851562 15.5H2.35156ZM3.34423 18.9399C2.71275 17.9314 2.35156 16.7559 2.35156 15.5H0.851562C0.851562 17.0491 1.29827 18.4989 2.07289 19.736L3.34423 18.9399ZM2.3871 22.5346L3.41666 19.5851L2.00046 19.0908L0.970897 22.0402L2.3871 22.5346ZM2.07434 22.2143C2.27087 22.1509 2.45515 22.3396 2.3871 22.5346L0.970897 22.0402C0.63061 23.0151 1.552 23.9588 2.53469 23.6419L2.07434 22.2143ZM5.18104 21.2125L2.07434 22.2143L2.53469 23.6419L5.6414 22.6401L5.18104 21.2125ZM9.47051 22.2499C8.11855 22.2499 6.85821 21.8932 5.78509 21.2761L5.03734 22.5764C6.33457 23.3224 7.85226 23.7499 9.47051 23.7499V22.2499Z" fill="black"/>
<path d="M6.41016 12.6738H13.073" stroke="black" stroke-width="1.5" stroke-linecap="round" stroke-linejoin="round"/>
<path d="M6.41016 15.4092H13.073" stroke="black" stroke-width="1.5" stroke-linecap="round" stroke-linejoin="round"/>
<path d="M6.41016 18.251L10.9503 18.251" stroke="black" stroke-width="1.5" stroke-linecap="round" stroke-linejoin="round"/>
</g>
<defs>
<clipPath id="clip0_215_6239">
<rect width="24" height="24" fill="white" transform="translate(0.601562)"/>
</clipPath>
</defs>
</svg>
