<svg width="25" height="24" viewBox="0 0 25 24" fill="none" xmlns="http://www.w3.org/2000/svg">
<path fill-rule="evenodd" clip-rule="evenodd" d="M9.03494 4.18935C9.98046 3.24383 11.2628 2.71265 12.6 2.71265C13.9372 2.71265 15.2196 3.24383 16.1651 4.18935C17.1106 5.13486 17.6418 6.41725 17.6418 7.75441C17.6418 9.09157 17.1106 10.374 16.1651 11.3195C15.9973 11.4873 15.8189 11.642 15.6315 11.783C16.6652 12.1928 17.6152 12.8119 18.4167 13.6134C19.9594 15.1561 20.826 17.2484 20.826 19.4301V20.4915C20.826 20.9312 20.4696 21.2876 20.03 21.2876C19.5903 21.2876 19.2339 20.9312 19.2339 20.4915V19.4301C19.2339 17.6707 18.535 15.9833 17.2909 14.7392C16.0468 13.4951 14.3594 12.7962 12.6 12.7962C10.8406 12.7962 9.15323 13.4951 7.90913 14.7392C6.66503 15.9833 5.96611 17.6707 5.96611 19.4301V20.4915C5.96611 20.9312 5.60969 21.2876 5.17004 21.2876C4.73038 21.2876 4.37397 20.9312 4.37397 20.4915V19.4301C4.37397 17.2484 5.24064 15.1561 6.78332 13.6134C7.58486 12.8119 8.53477 12.1928 9.5685 11.783C9.38109 11.642 9.20271 11.4873 9.03494 11.3195C8.08943 10.374 7.55824 9.09157 7.55824 7.75441C7.55824 6.41725 8.08943 5.13486 9.03494 4.18935ZM12.6 4.30478C11.6851 4.30478 10.8077 4.66823 10.1608 5.31516C9.51382 5.96209 9.15038 6.83951 9.15038 7.75441C9.15038 8.66931 9.51382 9.54674 10.1608 10.1937C10.8077 10.8406 11.6851 11.204 12.6 11.204C13.5149 11.204 14.3923 10.8406 15.0393 10.1937C15.6862 9.54674 16.0496 8.66931 16.0496 7.75441C16.0496 6.83951 15.6862 5.96209 15.0393 5.31516C14.3923 4.66823 13.5149 4.30478 12.6 4.30478Z" fill="#303C47"/>
</svg>
